<svg xmlns="http://www.w3.org/2000/svg" viewBox="0 0 64 64" id="community"><linearGradient id="a" x1="32.163" x2="32.163" y1="6.889" y2="57.066" gradientUnits="userSpaceOnUse"><stop offset="0" stop-color="#fff" stop-opacity=".25"></stop><stop offset="1" stop-color="#fed3be"></stop></linearGradient><path fill="url(#a)" d="M48.1 26.6c-.8-2.8-.9-5.8-1.5-8.7S45 12 42.8 10.1c-2.5-2.1-6-2.6-9.3-2.9-3.9-.4-8-.8-11.4 1.2-3.8 2.2-5.6 6.7-6.6 10.9-1 4.3-1.6 8.8-4 12.4-1.9 2.8-4.8 4.9-5.8 8.2-1 3.1.1 6.5 2.2 8.9 2.1 2.5 4.9 4.1 7.9 5.3 11.8 4.8 25.8 3.8 36.8-2.6 2.2-1.3 4.4-2.8 5.7-5.1 1.1-1.8 1.3-4 .6-6-.7-1.8-2-2.3-3.5-3.4-3.6-2.6-6.1-6.3-7.3-10.4z"></path><path fill="#fed3be" stroke="#3f9fe8" stroke-linecap="round" stroke-linejoin="round" stroke-miterlimit="10" stroke-width="1.267" d="M26.7 16.8c0 1.6-1.3 2.8-2.8 2.8S21 18.4 21 16.8c0-1.6 1.3-2.8 2.8-2.8s2.9 1.2 2.9 2.8z"></path><path fill="#9495fa" stroke="#3f9fe8" stroke-linecap="round" stroke-linejoin="round" stroke-miterlimit="10" stroke-width="1.267" d="M27.2 36.7v7.2c0 1-.8 1.8-1.7 1.8-.5 0-.9-.2-1.2-.5-.3-.3-.5-.8-.5-1.3v-8.7 8.7c0 1-.8 1.8-1.7 1.8-.5 0-.9-.2-1.2-.5-.3-.3-.5-.8-.5-1.3V36l-2.3-12c.5-1.1 1.6-1.9 2.8-1.9h5.7c.9 0 1.7.4 2.3 1.1"></path><path fill="#fed3be" stroke="#3f9fe8" stroke-linecap="round" stroke-linejoin="round" stroke-miterlimit="10" stroke-width="1.267" d="M44.7 16.8c0 1.6-1.3 2.8-2.8 2.8-1.6 0-2.8-1.3-2.8-2.8 0-1.6 1.3-2.8 2.8-2.8 1.5 0 2.8 1.2 2.8 2.8z"></path><path fill="#9495fa" stroke="#3f9fe8" stroke-linecap="round" stroke-linejoin="round" stroke-miterlimit="10" stroke-width="1.267" d="M45.2 36v8c0 1-.7 1.8-1.7 1.8-.5 0-.9-.2-1.2-.5-.3-.3-.5-.8-.5-1.3v-8.7V44c0 1-.8 1.8-1.7 1.8-.5 0-.9-.2-1.2-.5-.3-.3-.5-.8-.5-1.3v-7.2l-1.8-13.6c.6-.7 1.4-1.1 2.3-1.1h5.7c1.2 0 2.3.8 2.8 1.9"></path><path fill="#fed3be" stroke="#3f9fe8" stroke-linecap="round" stroke-linejoin="round" stroke-miterlimit="10" stroke-width="1.267" d="M36 17.2c0 1.7-1.4 3.1-3.1 3.1-1.7 0-3.1-1.4-3.1-3.1 0-1.7 1.4-3.1 3.1-3.1 1.7 0 3.1 1.4 3.1 3.1z"></path><path fill="#ff9d23" stroke="#3f9fe8" stroke-linecap="round" stroke-linejoin="round" stroke-miterlimit="10" stroke-width="1.267" d="M29.2 35.2c0 .9-.7 1.6-1.5 1.6h0c-.8 0-1.5-.7-1.5-1.6v-8.3c0-2.1 1.6-3.8 3.5-3.8H36c1.9 0 3.5 1.7 3.5 3.8v8.3c0 .9-.7 1.6-1.5 1.6h0c-.8 0-1.5-.7-1.5-1.6"></path><path fill="#ff9d23" stroke="#3f9fe8" stroke-linecap="round" stroke-linejoin="round" stroke-miterlimit="10" stroke-width="1.267" d="M36.6 29.8v17.6c0 1.1-.8 2-1.9 2h0c-1 0-1.9-.9-1.9-2v-9.7 9.7c0 1.1-.8 2-1.9 2h0c-1 0-1.9-.9-1.9-2V29.8"></path><path fill="#fed3be" stroke="#3f9fe8" stroke-linecap="round" stroke-linejoin="round" stroke-miterlimit="10" stroke-width="1.267" d="M17.8 18.9c0 1.5-1.3 2.8-2.8 2.8-1.5 0-2.8-1.3-2.8-2.8 0-1.5 1.3-2.8 2.8-2.8 1.6 0 2.8 1.2 2.8 2.8z"></path><path fill="#FF8A80" stroke="#3f9fe8" stroke-linecap="round" stroke-linejoin="round" stroke-miterlimit="10" stroke-width="1.267" d="M11.7 34.8c0 .8-.6 1.4-1.3 1.4h0c-.7 0-1.3-.6-1.3-1.4v-7.4c0-1.9 1.4-3.4 3.1-3.4h5.6c1.7 0 3.1 1.5 3.1 3.4v7.4c0 .8-.6 1.4-1.3 1.4h0c-.7 0-1.3-.6-1.3-1.4"></path><path fill="#FF8A80" stroke="#3f9fe8" stroke-linecap="round" stroke-linejoin="round" stroke-miterlimit="10" stroke-width="1.267" d="M18.3 30v15.6c0 1-.7 1.8-1.6 1.8h0c-.9 0-1.6-.8-1.6-1.8V37v8.6c0 1-.7 1.8-1.7 1.8h0c-.9 0-1.7-.8-1.7-1.8V30"></path><path fill="#fed3be" stroke="#3f9fe8" stroke-linecap="round" stroke-linejoin="round" stroke-miterlimit="10" stroke-width="1.267" d="M53.5 18.9c0 1.5-1.3 2.8-2.8 2.8-1.5 0-2.8-1.3-2.8-2.8 0-1.5 1.3-2.8 2.8-2.8 1.5 0 2.8 1.2 2.8 2.8z"></path><g fill="#FF8A80" stroke="#3f9fe8" stroke-linecap="round" stroke-linejoin="round" stroke-miterlimit="10" stroke-width="1.267"><path d="M47.4 34.8c0 .8-.6 1.4-1.3 1.4h0c-.7 0-1.3-.6-1.3-1.4v-7.4c0-1.9 1.4-3.4 3.1-3.4h5.6c1.7 0 3.1 1.5 3.1 3.4v7.4c0 .8-.6 1.4-1.3 1.4h0c-.7 0-1.3-.6-1.3-1.4"></path><path d="M54 30v15.6c0 1-.7 1.8-1.6 1.8h0c-.9 0-1.6-.8-1.6-1.8V37v8.6c0 1-.7 1.8-1.7 1.8h0c-.9 0-1.7-.8-1.7-1.8V30"></path></g><path fill="none" stroke="#ff9d23" stroke-linecap="round" stroke-linejoin="round" stroke-miterlimit="10" stroke-width="1.387" d="m0 33.5 1.9-1.9 1.7 1.7"></path><path fill="none" stroke="#9495fa" stroke-linecap="round" stroke-linejoin="round" stroke-miterlimit="10" stroke-width="1.267" d="m60.7 39.6 1.7-1.8 1.6 1.6"></path><path fill="none" stroke="#9495fa" stroke-linecap="round" stroke-linejoin="round" stroke-miterlimit="10" stroke-width="1.387" d="m4.9 22-2.5 2.6"></path><path fill="none" stroke="#ff9d23" stroke-linecap="round" stroke-linejoin="round" stroke-miterlimit="10" stroke-width="1.387" d="m62 21.7-2.7 2.7"></path><path fill="none" stroke="#3f9fe8" stroke-linecap="round" stroke-linejoin="round" stroke-miterlimit="10" stroke-width="1.267" d="m20.9 54.4-2.7 2.7"></path><path fill="none" stroke="#ff4b4d" stroke-linecap="round" stroke-linejoin="round" stroke-miterlimit="10" stroke-width="1.267" d="m43.1 51.8-2.8 2.7"></path></svg>