<svg xmlns="http://www.w3.org/2000/svg" width="32" height="32" enable-background="new 0 0 32 32" viewBox="0 0 32 32" id="love"><path fill="#FFF" d="M19.582,8.55c1.945,1.954,5.103,1.958,7.053,0.008l3.798-4.289l-0.757-0.959
						c-1.445-1.83-4.161-1.994-5.815-0.35l0,0c-0.345,0.301-1.002,0.546-1.46,0.546h-4.14c-0.565,0-1.127,0.078-1.671,0.23
						l-4.451,1.25L7.695,7.453c-0.482,0.337,0.289,2.5,2.555,1.633c1.197-0.46,2.755-0.964,3.431-1.434l3.386-0.612
						c0.438-0.133,1.057,0.025,1.377,0.351L19.582,8.55z"></path><path fill="#FFE0B2" d="M16.596,3.734L12.14,4.985L7.695,7.453c-0.482,0.337,0.289,2.5,2.555,1.633
						c1.197-0.46,2.755-0.964,3.431-1.434l3.386-0.612c0.438-0.133,1.057,0.025,1.377,0.351l1.138,1.158
						c0.416,0.417,0.893,0.727,1.396,0.967c1.552,0.28,3.576-0.233,4.776-1.434l4.306-4.334l-0.364-0.455
						c-1.458-1.825-4.178-1.981-5.834-0.334l0,0c-0.345,0.301-1.002,0.546-1.459,0.546h-4.146
						C17.695,3.505,17.137,3.583,16.596,3.734z"></path><path fill="#FFE0B2" d="M14.587,7.017h6.15l-0.109,2.497h-3.104C14.587,9.514,14.587,7.433,14.587,7.017z"></path><path fill="#FFF" d="M12.533,23.462c-1.945-1.955-5.103-1.958-7.053-0.008l-3.798,4.289l0.757,0.959
						c1.444,1.831,4.161,1.994,5.815,0.35l0,0c0.345-0.3,1.002-0.546,1.46-0.546h4.14c0.565,0,1.127-0.077,1.671-0.23l4.451-1.249
						l4.445-2.468c0.482-0.337-0.289-2.5-2.555-1.634c-1.197,0.46-2.755,0.964-3.431,1.434l-3.386,0.612
						c-0.438,0.133-1.057-0.025-1.377-0.351L12.533,23.462z"></path><path fill="#FFE0B2" d="M15.519,28.277l4.457-1.25l4.445-2.468c0.482-0.337-0.289-2.5-2.555-1.634
						c-1.197,0.46-2.755,0.964-3.431,1.434l-3.386,0.612c-0.438,0.133-1.057-0.025-1.377-0.351l-1.138-1.158
						c-0.416-0.418-0.893-0.728-1.396-0.967c-1.552-0.28-3.576,0.233-4.776,1.434l-4.306,4.333l0.364,0.455
						c1.458,1.826,4.178,1.981,5.834,0.334l0,0c0.345-0.3,1.002-0.546,1.459-0.546h4.146C14.42,28.506,14.979,28.429,15.519,28.277z
						"></path><path fill="#FFE0B2" d="M17.528,24.994h-6.15l0.109-2.496h3.104C17.528,22.498,17.528,24.578,17.528,24.994z"></path><g><path fill="#FF8A80" d="M18.365,11.5c-0.983,0-1.851,0.497-2.365,1.253c-0.515-0.756-1.382-1.253-2.365-1.253
					c-1.579,0-2.858,1.279-2.858,2.858C10.777,17.708,16,20.5,16,20.5s5.223-2.792,5.223-6.142
					C21.223,12.779,19.944,11.5,18.365,11.5z"></path><path fill="#FFF" d="M18.365,11.5c-0.983,0-1.851,0.497-2.365,1.253c-0.515-0.756-1.382-1.253-2.365-1.253
					c-1.579,0-2.858,1.279-2.858,2.858C10.777,17.708,16,20.5,16,20.5s5.223-2.792,5.223-6.142
					C21.223,12.779,19.944,11.5,18.365,11.5z"></path><path fill="#FF8A80" d="M21.21,14.07c-0.007-0.026-0.016-0.05-0.023-0.076c-0.493-0.862-1.41-1.45-2.474-1.45
					c-0.736,0-1.406,0.278-1.913,0.735c-0.252,0.228-0.644,0.235-0.896,0.007c-0.487-0.442-1.127-0.719-1.832-0.741
					c-0.82-0.024-1.581,0.373-2.141,0.973c-0.811,0.87-0.89,1.688-0.75,2.473C12.397,18.568,16,20.5,16,20.5
					S21.525,17.547,21.21,14.07z"></path><path fill="#F27670" d="M20.838,12.95c0.016,0.12,0.037,0.239,0.037,0.363c0,1.603-1.195,3.078-2.442,4.18
					c-1.595,1.41-3.983,1.398-5.574-0.017c-0.799-0.711-1.576-1.576-2.026-2.529C11.38,18.029,16,20.5,16,20.5
					s5.223-2.792,5.223-6.142C21.223,13.843,21.076,13.367,20.838,12.95z"></path></g><g><path fill="#455A64" d="M16 21c-.081 0-.162-.02-.236-.059-.224-.12-5.487-2.974-5.487-6.583 0-1.852 1.506-3.358 3.358-3.358.895 0 1.742.356 2.365.975C16.624 11.356 17.471 11 18.365 11c1.852 0 3.358 1.506 3.358 3.358 0 3.609-5.263 6.463-5.487 6.583C16.162 20.98 16.081 21 16 21zM13.635 12c-1.3 0-2.358 1.058-2.358 2.358 0 2.626 3.737 4.989 4.723 5.567.986-.578 4.723-2.94 4.723-5.567 0-1.3-1.058-2.358-2.358-2.358-.781 0-1.511.387-1.952 1.035-.187.273-.641.273-.827 0C15.146 12.387 14.416 12 13.635 12zM17.528 25.494h-6.033c-.276 0-.5-.224-.5-.5s.224-.5.5-.5h5.489c-.191-.993-.994-1.496-2.393-1.496H11.17c-.276 0-.5-.224-.5-.5s.224-.5.5-.5h3.421c2.185 0 3.438 1.092 3.438 2.996C18.028 25.271 17.805 25.494 17.528 25.494z"></path><path fill="#455A64" d="M1.558 27.899c-.127 0-.255-.048-.353-.146-.196-.194-.197-.511-.002-.707l3.922-3.946c1.643-1.641 4.149-2.072 6.24-1.073.249.119.354.417.235.667-.119.249-.417.355-.667.235-1.708-.817-3.758-.465-5.1.877l-3.921 3.945C1.814 27.85 1.686 27.899 1.558 27.899zM6.831 31.018c-.13 0-.26-.05-.358-.151-.192-.198-.188-.514.01-.707l1.443-1.405c.484-.472 1.124-.731 1.8-.731h4.134c.516 0 1.028-.071 1.524-.21l4.399-1.251 4.276-2.374c-.007-.138-.098-.432-.357-.665-.389-.351-.963-.396-1.658-.131-.284.109-.589.222-.898.335-.92.337-1.962.72-2.426 1.042-.059.041-.125.069-.196.082l-.973.176c-.274.047-.532-.132-.581-.403-.049-.272.131-.532.403-.581l.872-.157c.587-.374 1.588-.741 2.557-1.097.304-.111.604-.222.884-.33 1.638-.624 2.717.103 3.148.914.344.647.292 1.304-.126 1.596l-4.489 2.495c-.034.019-.069.033-.106.044l-4.457 1.268c-.585.165-1.189.248-1.796.248H9.725c-.414 0-.806.159-1.103.448L7.18 30.876C7.083 30.971 6.957 31.018 6.831 31.018zM20.945 10.014h-3.421c-2.185 0-3.438-1.092-3.438-2.997 0-.276.224-.5.5-.5h6.033c.276 0 .5.224.5.5s-.224.5-.5.5h-5.489c.191.994.994 1.497 2.393 1.497h3.421c.276 0 .5.224.5.5S21.222 10.014 20.945 10.014z"></path><path fill="#455A64" d="M23.105 10.517c-.799 0-1.604-.174-2.355-.533-.249-.119-.354-.417-.235-.667.12-.249.417-.354.667-.235 1.709.817 3.759.464 5.1-.877l3.922-3.945c.195-.195.511-.197.707-.002s.197.511.002.707L26.989 8.91C25.938 9.962 24.53 10.517 23.105 10.517zM9.253 9.789c-.984 0-1.654-.552-1.972-1.149C6.938 7.992 6.99 7.335 7.408 7.043l4.489-2.495c.034-.019.069-.033.106-.044l4.457-1.268c.586-.164 1.189-.247 1.796-.247h4.134c.414 0 .806-.159 1.103-.449l1.442-1.405c.197-.192.515-.189.707.009.193.198.189.515-.009.707L24.19 3.256c-.485.473-1.125.732-1.801.732h-4.134c-.515 0-1.028.07-1.524.209L12.333 5.45 8.057 7.824c.007.138.098.432.357.665.39.353.963.396 1.658.13.282-.108.585-.22.892-.332.922-.339 1.968-.722 2.433-1.045.059-.041.125-.069.196-.082l.973-.176c.272-.048.531.131.581.403.049.272-.131.532-.403.581l-.872.157c-.588.375-1.592.743-2.564 1.1-.302.111-.6.22-.878.327C9.999 9.718 9.606 9.789 9.253 9.789zM8.941 20.236c-.161 0-.319-.078-.416-.221C7.527 18.53 7 16.796 7 15c0-1.291.268-2.538.796-3.707.114-.251.41-.364.662-.25.251.114.363.41.25.662C8.238 12.744 8 13.852 8 15c0 1.597.469 3.138 1.355 4.458.154.229.093.54-.136.694C9.134 20.209 9.037 20.236 8.941 20.236zM22.479 21.001c-.114 0-.229-.039-.323-.119-.21-.179-.236-.494-.057-.705C23.325 18.735 24 16.896 24 15c0-.875-.14-1.734-.417-2.555-.088-.262.052-.545.314-.633.265-.088.545.053.633.314C24.842 13.05 25 14.017 25 15c0 2.133-.76 4.202-2.14 5.825C22.762 20.941 22.621 21.001 22.479 21.001z"></path></g></svg>